#!OML:ASF I:\Actors\actors\Patient Classification 2\Patient 1\Session 1\actor1.ASF
:FULLY-SPECIFIED
:DEGREES
438
root -0.736496 18.7424 5.3754 2.93649 -3.35454 -1.71859
lowerback 3.95798 1.79652 -1.26925
upperback 2.79685 2.35255 -0.457048
thorax 0.62061 1.16215 0.163341
lowerneck 8.0977 -1.23628 -0.95725
upperneck 12.8464 -2.10444 4.72007
head 2.80406 -0.97871 1.69409
rclavicle 4.96962e-015 4.37326e-015
rhumerus -9.28387 34.9326 -59.0942
rradius 142.264
rwrist -25.0719
rhand -11.3152 -34.4179
rfingers 7.12502
rthumb 14.7168 -63.8755
lclavicle 4.96962e-015 4.37326e-015
lhumerus 0.341263 -38.9218 56.0561
lradius 140.257
lwrist 46.8299
lhand -26.3563 -27.549
lfingers 7.12502
lthumb 0.201602 2.43067
rfemur 0 0 0
rtibia 0
rfoot 0 0
rtoes 0
lfemur -5.81004 -7.60762 -12.515
ltibia 21.0702
lfoot -24.4774 17.8313
ltoes -53.6017
439
root -0.736737 18.7418 5.37758 2.94268 -3.36428 -1.65782
lowerback 3.94917 1.79563 -1.32838
upperback 2.75295 2.3493 -0.483853
thorax 0.579287 1.16032 0.168434
lowerneck 8.15072 -1.22104 -0.927506
upperneck 12.9016 -2.08611 4.73917
head 2.81312 -0.967874 1.69586
rclavicle -1.19271e-014 2.38542e-015
rhumerus -9.31046 34.8185 -59.3627
rradius 142.183
rwrist -25.3689
rhand -11.278 -34.7647
rfingers 7.12502
rthumb 14.7527 -64.2197
lclavicle -1.19271e-014 2.38542e-015
lhumerus 0.275115 -38.8575 56.3085
lradius 140.165
lwrist 47.4366
lhand -26.4651 -27.5461
lfingers 7.12502
lthumb 0.0965671 2.43359
rfemur 0 0 0
rtibia 0
rfoot 0 0
rtoes 0
lfemur -5.80491 -7.56857 -12.5819
ltibia 21.0399
lfoot -24.4077 17.8722
ltoes -53.6348
440
root -0.736452 18.7414 5.37939 2.94471 -3.38101 -1.61848
lowerback 3.94443 1.80017 -1.35348
upperback 2.699 2.35408 -0.525224
thorax 0.52722 1.16318 0.139002
lowerneck 8.21911 -1.24098 -0.751067
upperneck 12.9581 -2.09558 4.63455
head 2.8164 -0.967064 1.63086
rclavicle 5.26779e-015 -6.36111e-015
rhumerus -9.29475 34.6629 -59.6504
rradius 142.048
rwrist -25.5762
rhand -11.1645 -35.0479
rfingers 7.12502
rthumb 14.862 -64.4948
lclavicle 5.26779e-015 -6.36111e-015
lhumerus 0.2104 -38.8059 56.5635
lradius 140.106
lwrist 48.0078
lhand -26.5519 -27.4316
lfingers 7.12502
lthumb 0.0126689 2.54816
rfemur 0 0 0
rtibia 0
rfoot 0 0
rtoes 0
lfemur -5.79257 -7.50936 -12.6232
ltibia 21.027
lfoot -24.3902 17.8263
ltoes -53.6159
441
root -0.73553 18.741 5.38215 2.95228 -3.40688 -1.64308
lowerback 3.91497 1.80307 -1.29758
upperback 2.65365 2.35972 -0.547551
thorax 0.50014 1.16718 0.0848523
lowerneck 8.26538 -1.28466 -0.552468
upperneck 13.0073 -2.13071 4.47901
head 2.82054 -0.978878 1.5452
rclavicle -1.99779e-014 1.27222e-014
rhumerus -9.30478 34.5457 -59.955
rradius 141.914
rwrist -25.7128
rhand -11.1463 -35.3109
rfingers 7.12502
rthumb 14.8795 -64.7566
lclavicle -1.99779e-014 1.27222e-014
lhumerus 0.21592 -38.7284 56.8062
lradius 140.053
lwrist 48.6698
lhand -26.6689 -26.9532
lfingers 7.12502
lthumb -0.100285 3.02652
rfemur 0 0 0
rtibia 0
rfoot 0 0
rtoes 0
lfemur -5.78874 -7.53923 -12.6059
ltibia 21.0407
lfoot -24.4144 17.8465
ltoes -53.6025
442
root -0.734108 18.741 5.38611 2.94918 -3.41386 -1.72474
lowerback 3.86558 1.79353 -1.18569
upperback 2.62509 2.35105 -0.52338
thorax 0.501808 1.16415 0.048553
lowerneck 8.31282 -1.3116 -0.511715
upperneck 13.0205 -2.16085 4.43645
head 2.8164 -0.993358 1.52433
rclavicle -2.24627e-014 -6.75868e-015
rhumerus -9.32513 34.4647 -60.2043
rradius 141.784
rwrist -25.7817
rhand -11.2694 -35.8198
rfingers 7.12502
rthumb 14.761 -65.2741
lclavicle -2.24627e-014 -6.75868e-015
lhumerus 0.20555 -38.6337 57.1567
lradius 139.934
lwrist 49.3638
lhand -26.743 -26.5492
lfingers 7.12502
lthumb -0.171825 3.43051
rfemur 0 0 0
rtibia 0
rfoot 0 0
rtoes 0
lfemur -5.77014 -7.57887 -12.5277
ltibia 21.068
lfoot -24.4817 17.8583
ltoes -53.6283
